<svg width="1024" height="1024" xmlns="http://www.w3.org/2000/svg">
  <path d="M934.857143 237.828571V91.428571c0-20.228571-16.342857-36.571429-36.571429-36.571428H125.714286c-20.228571 0-36.571429 16.342857-36.571429 36.571428v146.4c-19.085714 1.142857-34.285714 17.028571-34.285714 36.457143v150.514286a202.285714 202.285714 0 0 0 16.457143 80.457143c4.914286 11.657143 10.971429 22.628571 17.828571 33.028571v394.285715c0 20.114286 16.342857 36.571429 36.571429 36.571428h313.142857V768h146.285714v201.142857h313.142857c20.228571 0 36.571429-16.342857 36.571429-36.571428V538.285714a200 200 0 0 0 17.828571-33.028571c10.857143-25.485714 16.457143-52.571429 16.457143-80.457143V274.285714c0-19.428571-15.2-35.314286-34.285714-36.457143z m-82.285714 649.142858H658.285714V731.428571c0-20.228571-16.342857-36.571429-36.571428-36.571428H402.285714c-20.228571 0-36.571429 16.342857-36.571428 36.571428v155.542858H171.428571V610.171429c3.314286 1.6 6.742857 3.2 10.285715 4.571428 25.485714 10.742857 52.571429 16.114286 80.457143 16.114286s54.857143-5.371429 80.457142-16.114286c15.771429-6.628571 30.628571-15.085714 44.228572-25.257143 0.228571-0.114286 0.457143-0.114286 0.685714 0a206.171429 206.171429 0 0 0 44.228572 25.257143c25.485714 10.742857 52.571429 16.114286 80.457142 16.114286 27.885714 0 54.857143-5.371429 80.457143-16.114286 15.771429-6.628571 30.628571-15.085714 44.228572-25.257143 0.228571-0.114286 0.457143-0.114286 0.685714 0a206.171429 206.171429 0 0 0 44.228571 25.257143c25.485714 10.742857 52.571429 16.114286 80.457143 16.114286 27.885714 0 54.857143-5.371429 80.457143-16.114286 3.428571-1.485714 6.857143-2.971429 10.285714-4.571428v276.8z m0-649.257143H171.428571v-100.571429h681.142858v100.571429z" p-id="4911"></path>
</svg>
